<svg viewBox="0 0 72 72" xmlns="http://www.w3.org/2000/svg"><g id="Page-1" stroke="none" stroke-width="1" fill="none" fill-rule="evenodd"><g id="Social-Icons---Rounded-Black" transform="translate(-488 -1163)"><g id="stackoverflow" transform="translate(488 1163)"><path d="M8 72h56a8 8 0 008-8V8a8 8 0 00-8-8H8a8 8 0 00-8 8v56a8 8 0 008 8z" id="Rounded" fill="#000"/><path d="M42.086 53.592l-19.111.01-.002-4.048 19.11-.01.003 4.048zM55 30.671L51.73 12l-4.021.692 3.269 18.67 4.022-.69zM42.546 44.355l-19.03-1.739-.375 4.031 19.03 1.737.375-4.03zm1.255-5.282l-18.455-4.92-1.06 3.91 18.456 4.919 1.059-3.909zm2.41-4.63l-16.462-9.627-2.074 3.486 16.462 9.627 2.073-3.485zm4.036-2.834l-3.372 2.28-10.768-15.657 3.372-2.28 10.768 15.657zm-4.915 8.67h3.248V60H17V40.278h3.265v16.546h25.067V40.278z" fill="#FFF"/></g></g></g></svg>